<svg xmlns="http://www.w3.org/2000/svg" id="Capa_2" data-name="Capa 2" viewBox="0 0 643.21 97.02"><defs><style>      .cls-1 {        fill: #ffffff;      }    </style></defs><g id="Contenido"><g><g><g><path class="cls-1" d="M43.34,36.54v9.46h18.99v9.4h-18.99v14.75h-12.17V27.13h33.74v9.4h-21.57Z"></path><path class="cls-1" d="M70.63,27.13h12.17v43.01h-12.17V27.13Z"></path><path class="cls-1" d="M132.38,27.13v43.01h-10.02l-18.99-22.92v22.92h-11.92V27.13h10.02l18.99,22.92v-22.92h11.92Z"></path><path class="cls-1" d="M169.8,61.79h-18.19l-3.38,8.36h-12.41l18.99-43.01h11.98l19.05,43.01h-12.66l-3.38-8.36ZM166.24,52.82l-5.53-13.76-5.53,13.76h11.06Z"></path><path class="cls-1" d="M230.21,27.13v43.01h-10.02l-18.99-22.92v22.92h-11.92V27.13h10.02l18.99,22.92v-22.92h11.92Z"></path><path class="cls-1" d="M248.12,68.15c-3.59-1.91-6.4-4.56-8.45-7.96-2.05-3.4-3.07-7.25-3.07-11.55s1.02-8.15,3.07-11.55c2.05-3.4,4.86-6.05,8.45-7.96,3.58-1.91,7.63-2.86,12.14-2.86,3.93,0,7.48.7,10.63,2.09,3.15,1.39,5.78,3.4,7.87,6.02l-7.74,7.01c-2.79-3.36-6.17-5.04-10.14-5.04-2.33,0-4.41.51-6.24,1.54-1.82,1.02-3.24,2.47-4.24,4.33-1,1.86-1.51,4-1.51,6.42s.5,4.56,1.51,6.42c1,1.86,2.42,3.31,4.24,4.33,1.82,1.02,3.9,1.54,6.24,1.54,3.97,0,7.35-1.68,10.14-5.04l7.74,7.01c-2.09,2.62-4.71,4.63-7.87,6.02-3.15,1.39-6.7,2.09-10.63,2.09-4.51,0-8.55-.95-12.14-2.86Z"></path><path class="cls-1" d="M318.69,60.75v9.4h-34.53V27.13h33.74v9.4h-21.69v7.25h19.11v9.09h-19.11v7.87h22.49Z"></path><path class="cls-1" d="M344.26,58.72h-6.64v11.43h-12.17V27.13h19.66c3.89,0,7.27.65,10.14,1.94,2.87,1.29,5.08,3.13,6.64,5.53,1.56,2.4,2.34,5.21,2.34,8.45s-.73,5.83-2.18,8.14c-1.46,2.31-3.53,4.13-6.24,5.44l9.28,13.52h-13.03l-7.8-11.43ZM350.03,38.38c-1.27-1.11-3.16-1.66-5.65-1.66h-6.76v12.6h6.76c2.5,0,4.38-.54,5.65-1.63,1.27-1.08,1.91-2.63,1.91-4.64s-.64-3.56-1.91-4.67Z"></path><path class="cls-1" d="M375.9,69.72c-3.28-.86-5.94-2.01-7.99-3.44l3.99-8.97c1.93,1.27,4.16,2.29,6.7,3.07,2.54.78,5.04,1.17,7.5,1.17,4.67,0,7-1.17,7-3.5,0-1.23-.67-2.14-2-2.73-1.33-.59-3.47-1.22-6.42-1.87-3.24-.7-5.94-1.44-8.11-2.24-2.17-.8-4.04-2.08-5.59-3.84-1.56-1.76-2.33-4.14-2.33-7.13,0-2.62.72-4.99,2.15-7.1,1.43-2.11,3.57-3.78,6.42-5.01,2.85-1.23,6.34-1.84,10.48-1.84,2.83,0,5.61.32,8.36.95,2.74.64,5.16,1.57,7.25,2.8l-3.75,9.03c-4.1-2.21-8.07-3.32-11.92-3.32-2.42,0-4.18.36-5.28,1.08-1.11.72-1.66,1.65-1.66,2.8s.66,2.01,1.97,2.58c1.31.57,3.42,1.17,6.33,1.78,3.28.7,5.99,1.44,8.14,2.24,2.15.8,4.01,2.07,5.59,3.81,1.58,1.74,2.37,4.11,2.37,7.1,0,2.58-.72,4.92-2.15,7.01-1.44,2.09-3.59,3.76-6.45,5.01-2.87,1.25-6.35,1.87-10.45,1.87-3.48,0-6.86-.43-10.14-1.29Z"></path></g><path class="cls-1" d="M423.19,10.24v76.53H10.24V10.24h412.94ZM0,0v97.02h433.43V0H0Z"></path></g><g><path class="cls-1" d="M468.71,18.96h-9.04v-3.24h21.96v3.24h-9.08v26.42h-3.85v-26.42Z"></path><path class="cls-1" d="M483.88,30.73c0-2.51-.06-4.65-.18-6.63h3.39l.15,4.17h.14c.99-2.86,3.34-4.66,5.93-4.66.42,0,.72.03,1.08.11v3.64c-.39-.08-.79-.11-1.32-.11-2.73,0-4.66,2.06-5.18,4.95-.1.54-.16,1.18-.16,1.81v11.37h-3.85v-14.65Z"></path><path class="cls-1" d="M512.32,45.38l-.34-2.69h-.12c-1.17,1.66-3.46,3.17-6.51,3.17-4.3,0-6.5-3.05-6.5-6.11,0-5.16,4.57-7.99,12.79-7.93v-.45c0-1.73-.49-4.93-4.85-4.91-1.98,0-4.05.59-5.54,1.59l-.88-2.57c1.76-1.14,4.34-1.87,7.02-1.87,6.51,0,8.09,4.45,8.09,8.71v7.96c0,1.82.08,3.63.32,5.09h-3.49ZM511.72,34.52c-4.19-.09-8.98.66-8.98,4.78,0,2.54,1.67,3.71,3.61,3.71,2.8,0,4.57-1.76,5.19-3.56.13-.41.18-.85.18-1.22v-3.7Z"></path><path class="cls-1" d="M523.61,45.38c.1-1.46.18-3.6.18-5.49V14.14h3.85v13.38h.09c1.36-2.39,3.82-3.9,7.26-3.9,5.29,0,9,4.39,8.98,10.84,0,7.63-4.84,11.41-9.58,11.41-3.07,0-5.53-1.21-7.13-3.98h-.1l-.2,3.5h-3.34ZM527.64,36.86c0,.48.06.96.16,1.4.73,2.69,3.01,4.53,5.8,4.53,4.07,0,6.46-3.3,6.46-8.18,0-4.28-2.21-7.94-6.35-7.94-2.62,0-5.08,1.84-5.86,4.76-.12.47-.22,1-.22,1.61v3.82Z"></path><path class="cls-1" d="M563,45.38l-.34-2.69h-.12c-1.17,1.66-3.46,3.17-6.51,3.17-4.3,0-6.5-3.05-6.5-6.11,0-5.16,4.57-7.99,12.79-7.93v-.45c0-1.73-.49-4.93-4.85-4.91-1.98,0-4.05.59-5.54,1.59l-.88-2.57c1.76-1.14,4.34-1.87,7.02-1.87,6.51,0,8.09,4.45,8.09,8.71v7.96c0,1.82.08,3.63.32,5.09h-3.49ZM562.39,34.52c-4.19-.09-8.98.66-8.98,4.78,0,2.54,1.67,3.71,3.61,3.71,2.8,0,4.57-1.76,5.19-3.56.13-.41.18-.85.18-1.22v-3.7Z"></path><path class="cls-1" d="M569.03,51.54c1.79-.12,3.3-.61,4.22-1.64,1.06-1.2,1.49-2.88,1.49-7.99v-17.8h3.85v19.29c0,4.14-.66,6.82-2.54,8.78-1.71,1.71-4.53,2.39-6.6,2.41l-.41-3.05ZM579.05,18.09c0,1.29-.9,2.41-2.45,2.41-1.43,0-2.35-1.11-2.34-2.41,0-1.33.99-2.41,2.44-2.41s2.35,1.08,2.36,2.41Z"></path><path class="cls-1" d="M598.73,45.38l-.34-2.69h-.12c-1.17,1.66-3.46,3.17-6.51,3.17-4.3,0-6.5-3.05-6.5-6.11,0-5.16,4.57-7.99,12.79-7.93v-.45c0-1.73-.49-4.93-4.85-4.91-1.98,0-4.05.59-5.54,1.59l-.88-2.57c1.76-1.14,4.34-1.87,7.02-1.87,6.51,0,8.09,4.45,8.09,8.71v7.96c0,1.82.08,3.63.32,5.09h-3.49ZM598.13,34.52c-4.19-.09-8.98.66-8.98,4.78,0,2.54,1.67,3.71,3.61,3.71,2.8,0,4.57-1.76,5.19-3.56.13-.41.18-.85.18-1.22v-3.7Z"></path><path class="cls-1" d="M467.58,57.98v6.13h5.56v2.93h-5.56v11.47c0,2.65.76,4.15,2.93,4.15,1,0,1.73-.12,2.24-.28l.18,2.94c-.75.3-1.95.53-3.46.53-1.78,0-3.26-.59-4.18-1.64-1.07-1.17-1.5-3.05-1.5-5.55v-11.62h-3.3v-2.93h3.3v-5.13l3.79-1Z"></path><path class="cls-1" d="M479.53,70.73c0-2.51-.06-4.65-.18-6.63h3.39l.15,4.17h.14c.99-2.86,3.34-4.66,5.93-4.66.42,0,.72.03,1.08.11v3.64c-.39-.08-.79-.11-1.32-.11-2.73,0-4.66,2.06-5.18,4.95-.1.54-.16,1.18-.16,1.81v11.37h-3.85v-14.65Z"></path><path class="cls-1" d="M507.97,85.38l-.34-2.69h-.12c-1.17,1.66-3.46,3.17-6.51,3.17-4.3,0-6.5-3.05-6.5-6.11,0-5.16,4.57-7.99,12.79-7.93v-.45c0-1.73-.49-4.93-4.85-4.91-1.98,0-4.05.59-5.54,1.59l-.88-2.57c1.76-1.14,4.34-1.87,7.02-1.87,6.51,0,8.09,4.45,8.09,8.71v7.96c0,1.82.08,3.63.32,5.09h-3.49ZM507.37,74.52c-4.19-.09-8.98.66-8.98,4.78,0,2.54,1.67,3.71,3.61,3.71,2.8,0,4.57-1.76,5.19-3.56.13-.41.18-.85.18-1.22v-3.7Z"></path><path class="cls-1" d="M519.39,69.85c0-2.22-.07-3.98-.18-5.75h3.42l.21,3.5h.11c1.05-2,3.52-3.98,7.04-3.98,2.92,0,7.5,1.76,7.5,9.07v12.7h-3.85v-12.27c0-3.44-1.3-6.32-4.92-6.32-2.54,0-4.52,1.81-5.22,3.97-.16.47-.27,1.16-.27,1.79v12.83h-3.85v-15.53Z"></path><path class="cls-1" d="M560.6,82.1h-.1c-1.16,2.1-3.51,3.76-6.95,3.76-4.98,0-9.02-4.29-9.02-10.77,0-7.99,5.14-11.48,9.64-11.48,3.32,0,5.49,1.62,6.55,3.68h.09s.14-3.2.14-3.2h3.67c-.09,1.77-.17,3.63-.17,5.84v24.15h-3.85v-11.99ZM560.6,72.7c0-.54-.05-1.12-.17-1.61-.61-2.38-2.67-4.41-5.57-4.41-4.01,0-6.43,3.4-6.43,8.17,0,4.26,2.03,7.93,6.3,7.93,2.5,0,4.69-1.55,5.55-4.21.19-.55.32-1.28.32-1.86v-4.01Z"></path><path class="cls-1" d="M590.62,79.56c0,2.23.07,4.14.18,5.82h-3.42l-.21-3.48h-.11c-.98,1.71-3.23,3.96-7.04,3.96-3.33,0-7.33-1.87-7.33-9.33v-12.44h3.85v11.76c0,4.05,1.26,6.81,4.76,6.81,2.59,0,4.41-1.82,5.12-3.55.2-.56.35-1.25.35-1.98v-13.04h3.85v15.46Z"></path><path class="cls-1" d="M603.44,58.09c0,1.32-.92,2.41-2.46,2.41-1.4,0-2.34-1.09-2.34-2.41,0-1.33.99-2.41,2.41-2.41s2.38,1.06,2.39,2.41ZM599.12,85.38v-21.28h3.85v21.28h-3.85Z"></path><path class="cls-1" d="M611.34,54.14h3.85v31.24h-3.85v-31.24Z"></path><path class="cls-1" d="M643.21,74.54c0,7.88-5.47,11.33-10.58,11.33-5.77,0-10.23-4.21-10.23-10.96,0-7.12,4.68-11.29,10.57-11.29s10.25,4.44,10.25,10.92ZM626.34,74.79c0,4.67,2.67,8.18,6.45,8.18s6.49-3.47,6.49-8.3c0-3.6-1.81-8.15-6.42-8.15s-6.52,4.23-6.52,8.27Z"></path></g></g></g></svg>
